<svg width="70" height="50" viewBox="0 0 70 50" fill="none" xmlns="http://www.w3.org/2000/svg">
<ellipse cx="10.5422" cy="37.9807" rx="10.5422" ry="12.0192" fill="#02513D"/>
<ellipse cx="59.4579" cy="37.9807" rx="10.5422" ry="12.0192" fill="#02513D"/>
<path fill-rule="evenodd" clip-rule="evenodd" d="M35.0001 50C47.1104 50 56.9278 38.8071 56.9278 25C56.9278 11.1929 47.1104 0 35.0001 0C22.8898 0 13.0724 11.1929 13.0724 25C13.0724 38.8071 22.8898 50 35.0001 50ZM35.0001 38.4614C41.521 38.4614 46.8073 32.4345 46.8073 24.9999C46.8073 17.5653 41.521 11.5383 35.0001 11.5383C28.4791 11.5383 23.1928 17.5653 23.1928 24.9999C23.1928 32.4345 28.4791 38.4614 35.0001 38.4614Z" fill="#02513D"/>
<path d="M51.8677 9.0144L67.3647 30.0481L54.3978 29.3269L51.8677 9.0144Z" fill="#02513D"/>
<path d="M18.2379 8.89429L2.74093 29.9279L15.7078 29.2068L18.2379 8.89429Z" fill="#02513D"/>
</svg>
